<svg width="20" height="21" viewBox="0 0 20 21" fill="none" xmlns="http://www.w3.org/2000/svg"><g clip-path="url(#a)" fill="#000"><path d="M17.9 9.8H9.4V11h8.5l-2.1 2 .9 1 3.1-3.1a.8.8 0 0 0 0-1l-3.1-3-.9.8 2.1 2ZM8.1 19.8v-6.2a.7.7 0 0 0-.6-.6H3.1a1.2 1.2 0 0 0 1.2 1.2h2.5v5H3.1a1.8 1.8 0 0 1-1.9-1.7v-14a1.8 1.8 0 0 1 1.7-1.9h3.9v5H4.4a1.2 1.2 0 0 0-1.2 1.2h4.4a.6.6 0 0 0 .6-.6V1a.9.9 0 0 0-.7-.6H3.1a3 3 0 0 0-3.1 3v13.9a3 3 0 0 0 2.9 3h4.6a.5.5 0 0 0 .6-.4Z"/></g><defs><clipPath id="a"><path fill="#fff" transform="translate(0 .3)" d="M0 0h20v20.1H0z"/></clipPath></defs></svg>